<svg width="259" height="301" viewBox="0 0 259 301" fill="none" xmlns="http://www.w3.org/2000/svg">
<g clip-path="url(#clip0_576_175)">
<path opacity="0.3" d="M131.141 301C179.279 301 218.303 295.375 218.303 288.437C218.303 281.498 179.279 275.873 131.141 275.873C83.0024 275.873 43.9785 281.498 43.9785 288.437C43.9785 295.375 83.0024 301 131.141 301Z" fill="#898989"/>
<path d="M247.814 107.803C238.462 105.912 229.87 108.146 221.975 110.838L220.498 111.348C220.424 111.376 220.351 111.399 220.278 111.422C219.157 65.4825 179.65 28.5613 131.043 28.5613C126.216 28.5613 121.481 28.9367 116.859 29.6365L113.036 22.8797C112.811 22.4812 112.548 22.0641 112.265 21.6331C112.138 21.4338 111.977 21.179 111.831 20.9472C111.875 20.9009 111.924 20.8499 111.968 20.8036C112.587 20.1316 113.172 19.455 113.626 18.7506C114.811 16.9015 115.586 14.9644 115.922 13.0041C116.873 7.57277 114.186 2.80411 109.076 0.857722C104.058 -1.04696 97.1879 -0.0737646 93.9501 6.58104C92.7213 9.10207 93.8769 12.0958 96.5345 13.259C99.1774 14.4268 102.337 13.3285 103.561 10.8028C103.839 10.2328 104.063 9.78331 105.141 10.2004C105.317 10.2653 105.643 10.3904 105.477 11.359C105.36 12.0356 105.053 12.7817 104.595 13.5C104.434 13.7317 104.215 13.9402 104.01 14.1673C103.103 15.1498 101.733 16.6374 101.186 18.7877C100.284 22.2958 102.132 25.1737 103.239 26.8884C103.41 27.1572 103.581 27.412 103.717 27.6484L106.141 31.9304C69.2667 42.098 42.2379 74.232 41.7892 112.455C40.7165 112.103 39.6193 111.728 38.5027 111.343L37.0252 110.833C29.1306 108.141 20.5338 105.912 11.1861 107.798C3.55975 109.341 -1.31159 116.464 0.312189 123.717C1.93109 130.969 9.42583 135.604 17.062 134.056C19.856 133.5 25.0005 135.256 27.4776 136.099L28.8722 136.581C32.8804 137.962 37.5518 139.552 42.7304 140.372C43.4813 162.329 44.637 184.273 46.2412 206.183C46.7142 212.611 47.3091 219.335 50.6835 224.762C54.0529 230.189 61.1332 233.734 66.7165 230.865C69.0131 229.684 70.7588 227.612 72.9092 226.171C74.4404 225.147 76.1324 224.512 77.8927 224.132C77.0394 226.607 76.4396 229.318 76.1275 232.158C74.0942 250.454 83.2078 252.962 91.946 252.962C100.216 252.962 108.033 250.941 107.857 234.976C113.26 237.724 118.955 239.87 124.826 241.265C129.088 242.28 133.555 242.915 137.826 241.941C141.093 241.195 144.087 239.545 147.033 237.91C150.495 235.991 153.957 234.072 157.419 232.154C157.419 232.154 157.419 232.158 157.419 232.163C155.39 250.459 164.499 252.966 173.237 252.966C181.975 252.966 190.221 250.737 189.056 232.163C188.797 228.057 187.807 224.234 186.252 221.008C188.592 220.869 190.943 220.985 193.298 221.458C199.237 222.649 205.893 225.828 210.838 222.223C214.49 219.562 215.265 214.386 215.68 209.789C217.781 186.594 218.679 163.289 218.489 139.992C222.789 139.116 226.71 137.777 230.138 136.595L231.532 136.113C234.01 135.265 239.149 133.504 241.948 134.07C249.579 135.613 257.074 130.983 258.698 123.735C260.322 116.487 255.455 109.36 247.824 107.816L247.814 107.803Z" fill="#F18819"/>
<path d="M115.488 102.102C115.488 102.102 119.877 88.7184 131.419 88.4727C142.961 88.2271 144.809 105.995 144.809 105.995" stroke="#040000" stroke-width="2" stroke-miterlimit="10"/>
<path d="M138.207 62.4235L156.132 53.6648" stroke="#040000" stroke-width="2" stroke-miterlimit="10"/>
<path d="M124.89 61.0888L102.869 50.0129" stroke="#040000" stroke-width="2" stroke-miterlimit="10"/>
<path d="M150.066 79.0976C152.969 79.0976 155.322 76.5185 155.322 73.3372C155.322 70.1558 152.969 67.5768 150.066 67.5768C147.163 67.5768 144.809 70.1558 144.809 73.3372C144.809 76.5185 147.163 79.0976 150.066 79.0976Z" fill="#040000"/>
<path d="M113.362 79.0976C116.265 79.0976 118.619 76.5185 118.619 73.3372C118.619 70.1558 116.265 67.5768 113.362 67.5768C110.459 67.5768 108.105 70.1558 108.105 73.3372C108.105 76.5185 110.459 79.0976 113.362 79.0976Z" fill="#040000"/>
<path d="M235.068 238.085C233.624 235.555 233.902 231.755 235.901 229.809C237.901 227.862 241.397 228.432 242.631 231.115C243.284 232.538 243.274 234.23 243.25 235.842C245.371 232.45 249.194 230.638 252.734 231.352C253.344 231.472 253.958 231.671 254.465 232.089C254.919 232.455 255.265 232.974 255.548 233.525C257.045 236.408 256.689 240.745 254.231 242.506C253.899 242.743 253.519 242.956 253.348 243.368C253.114 243.929 253.373 244.578 253.587 245.148C254.543 247.692 254.607 250.751 253.505 253.212C252.402 255.672 250.062 257.396 247.692 257.197C245.005 256.97 242.665 254.129 242.572 250.978C240.69 253.624 237.72 254.945 234.794 255.246C233.4 255.39 231.947 255.315 230.679 254.63C229.031 253.735 227.836 251.78 227.646 249.666C227.456 247.553 228.275 245.352 229.733 244.077C229.494 245.018 228.265 244.281 227.861 243.424C226.554 240.667 226.164 236.704 228.285 234.753C230.162 233.025 232.883 233.836 235.146 234.721" fill="#F18819"/>
<path d="M8.1723 202.276C6.74844 199.746 7.02151 195.946 8.99638 194C10.9712 192.053 14.4285 192.623 15.6427 195.306C16.2863 196.729 16.2814 198.421 16.2571 200.033C18.3538 196.641 22.128 194.829 25.6243 195.543C26.2289 195.663 26.8336 195.863 27.3358 196.28C27.7795 196.646 28.1258 197.165 28.4086 197.716C29.8909 200.599 29.535 204.936 27.1066 206.697C26.7799 206.934 26.3996 207.147 26.2338 207.559C26.0046 208.12 26.2582 208.769 26.4678 209.339C27.4138 211.883 27.4772 214.942 26.3849 217.403C25.2927 219.863 22.9862 221.587 20.6456 221.388C17.993 221.161 15.6817 218.32 15.589 215.169C13.7312 217.815 10.8006 219.136 7.90411 219.437C6.52901 219.581 5.09053 219.507 3.83735 218.821C2.20869 217.926 1.02865 215.971 0.843353 213.857C0.658057 211.744 1.46751 209.543 2.90111 208.268C2.66706 209.209 1.45288 208.472 1.05303 207.615C-0.239166 204.858 -0.624387 200.895 1.46751 198.944C3.32047 197.216 6.00726 198.027 8.24544 198.912" fill="#F18819"/>
<path d="M231.61 66.0707C230.806 64.6387 230.957 62.4884 232.073 61.3855C233.19 60.2825 235.145 60.6069 235.833 62.1223C236.199 62.9241 236.194 63.8833 236.179 64.7963C237.364 62.8777 239.5 61.8535 241.48 62.2567C241.821 62.3262 242.162 62.4375 242.45 62.6738C242.704 62.8823 242.894 63.1743 243.055 63.4848C243.893 65.1161 243.693 67.5676 242.318 68.5686C242.133 68.703 241.919 68.8235 241.826 69.0552C241.694 69.3703 241.841 69.741 241.958 70.0608C242.494 71.5021 242.528 73.2306 241.909 74.6256C241.289 76.0205 239.988 76.9937 238.661 76.8824C237.159 76.7527 235.853 75.1446 235.799 73.365C234.75 74.8619 233.088 75.608 231.454 75.7795C230.674 75.8629 229.865 75.8212 229.153 75.4319C228.231 74.9268 227.563 73.8192 227.461 72.6236C227.358 71.4279 227.812 70.1813 228.626 69.4584C228.494 69.9913 227.807 69.5742 227.578 69.0876C226.846 67.5259 226.632 65.2875 227.812 64.1846C228.86 63.2067 230.381 63.6655 231.649 64.166" fill="#F18819"/>
</g>
<defs>
<clipPath id="clip0_576_175">
<rect width="259" height="301" fill="white"/>
</clipPath>
</defs>
</svg>
