<svg width="54" height="54" viewBox="0 0 54 54" fill="none" xmlns="http://www.w3.org/2000/svg">
<path fill-rule="evenodd" clip-rule="evenodd" d="M54 27C54 41.9121 41.9121 54 27 54C12.0879 54 0 41.9121 0 27C0 12.0879 12.0879 0 27 0C41.9121 0 54 12.0879 54 27ZM35.1 18.9C35.1 21.0483 34.2466 23.1085 32.7276 24.6276C31.2085 26.1466 29.1483 27 27 27C24.8517 27 22.7915 26.1466 21.2724 24.6276C19.7534 23.1085 18.9 21.0483 18.9 18.9C18.9 16.7517 19.7534 14.6915 21.2724 13.1724C22.7915 11.6534 24.8517 10.8 27 10.8C29.1483 10.8 31.2085 11.6534 32.7276 13.1724C34.2466 14.6915 35.1 16.7517 35.1 18.9ZM27 49.95C31.6339 49.9574 36.1606 48.5553 39.9789 45.9297C41.6097 44.8092 42.3063 42.6762 41.3559 40.9401C39.393 37.341 35.343 35.1 27 35.1C18.657 35.1 14.607 37.341 12.6414 40.9401C11.6937 42.6762 12.3903 44.8092 14.0211 45.9297C17.8394 48.5553 22.3661 49.9574 27 49.95Z" fill="#F5D01F"/>
</svg>
