<?xml version="1.0" encoding="UTF-8"?>
<svg id="_레이어_1" data-name="레이어_1" xmlns="http://www.w3.org/2000/svg" viewBox="0 0 214.4 232.14">
  <defs>
    <style>
      .cls-1 {
        fill: #f4cf1f;
      }

      .cls-2 {
        fill: #040000;
      }
    </style>
  </defs>
  <path class="cls-1" d="M210.31,113.72c-6.21-5.57-13.72-7.53-20.92-8.83l-1.35-.24s-1.45-.18-3.66-.4l.1-1.74c0-.14,0-.16,0-.26-.96-42.16-34.82-76.04-76.47-76.04-4.14,0-8.2.35-12.16.99l-3.28-6.2c-.19-.37-.42-.75-.66-1.14-.11-.18-.25-.41-.37-.63.04-.04.08-.09.12-.13.53-.61,1.03-1.24,1.42-1.88,1.02-1.7,1.68-3.48,1.97-5.27.82-4.98-1.49-9.36-5.87-11.14-4.3-1.75-10.19-.86-12.96,5.25-1.05,2.32-.06,5.06,2.22,6.13,2.27,1.07,4.97.06,6.02-2.25.24-.52.43-.93,1.35-.55.15.06.43.18.29,1.06-.1.62-.36,1.31-.76,1.96-.14.21-.33.4-.5.61-.78.9-1.95,2.27-2.42,4.24-.77,3.22.81,5.86,1.76,7.43.15.25.29.48.41.7l2.08,3.93c-26.85,7.93-47.61,30.41-53.48,58.51-.54-.3-1.07-.6-1.59-.88l-1.13-.63c-2-1.11-6.17-3.43-7.39-5.6-3.32-5.94-10.82-8.06-16.76-4.74-5.94,3.32-8.06,10.82-4.74,16.76,4.07,7.27,10.55,11.57,16.94,15.12l1.2.66c.91.5,1.8.99,2.66,1.48l9.48,3.76.47,15.06c.65,20.15,1.63,40.29,3.01,60.4.4,5.9.92,12.07,3.81,17.05,2.89,4.98,8.95,8.24,13.74,5.6,1.97-1.08,3.46-2.99,5.31-4.31,1.31-.94,2.76-1.52,4.27-1.87-.73,2.27-1.24,4.76-1.51,7.36-1.74,16.79,6.07,19.09,13.55,19.09,7.09,0,13.79-1.86,13.64-16.5,4.63,2.52,9.51,4.49,14.54,5.77,3.65.93,7.48,1.52,11.14.62,2.8-.68,5.36-2.2,7.89-3.7,2.97-1.76,5.93-3.52,8.9-5.28,0,0,0,0,0,0-1.74,16.79,6.07,19.09,13.55,19.09s14.56-2.05,13.55-19.09c-.22-3.77-1.07-7.27-2.4-10.24,2-.13,4.02-.02,6.04.41,5.09,1.09,10.79,4.01,15.03.7,3.13-2.44,3.79-7.19,4.15-11.41,1.79-21.19,2.56-42.47,2.41-63.75.28.05.56.1.83.15l1.28.23c2.26.4,6.95,1.24,8.81,2.91,5.06,4.55,12.85,4.12,17.39-.94,4.55-5.06,4.13-12.85-.93-17.39Z"/>
  <path class="cls-2" d="M108.16,96.4c-.69,0-1.4-.04-2.14-.12-13.67-1.46-18.07-11.99-18.25-12.44l5.71-2.31-2.85,1.15,2.84-1.18c.13.31,3.32,7.59,13.21,8.65,8.96.94,11.44-7.07,11.7-7.99l5.95,1.57c-1.19,4.57-6.06,12.66-16.16,12.66Z"/>
  <ellipse class="cls-2" cx="124.32" cy="66.44" rx="3.91" ry="4.5"/>
  <ellipse class="cls-2" cx="91.67" cy="66.44" rx="3.91" ry="4.5"/>
</svg>