<svg width="259" height="301" viewBox="0 0 259 301" fill="none" xmlns="http://www.w3.org/2000/svg">
<g clip-path="url(#clip0_576_150)">
<path opacity="0.3" d="M131.141 301C179.279 301 218.303 295.375 218.303 288.437C218.303 281.498 179.279 275.873 131.141 275.873C83.0024 275.873 43.9785 281.498 43.9785 288.437C43.9785 295.375 83.0024 301 131.141 301Z" fill="#898989"/>
<path d="M247.814 107.803C238.461 105.912 229.87 108.146 221.975 110.839L220.498 111.348C220.424 111.376 220.351 111.399 220.278 111.422C219.157 65.483 179.649 28.5618 131.043 28.5618C126.216 28.5618 121.481 28.9372 116.859 29.637L113.036 22.8802C112.811 22.4817 112.548 22.0646 112.265 21.6336C112.138 21.4343 111.977 21.1795 111.831 20.9477C111.875 20.9014 111.924 20.8504 111.968 20.8041C112.587 20.1321 113.172 19.4555 113.626 18.7511C114.811 16.902 115.586 14.9649 115.922 13.0046C116.873 7.57326 114.186 2.8046 109.076 0.85821C104.058 -1.04647 97.1879 -0.0732763 93.9501 6.58152C92.7213 9.10256 93.8769 12.0963 96.5345 13.2595C99.1774 14.4273 102.337 13.329 103.561 10.8033C103.839 10.2333 104.063 9.7838 105.141 10.2009C105.317 10.2658 105.643 10.3909 105.477 11.3594C105.36 12.0361 105.053 12.7822 104.595 13.5005C104.434 13.7322 104.215 13.9407 104.01 14.1678C103.103 15.1503 101.733 16.6379 101.186 18.7882C100.284 22.2963 102.132 25.1742 103.239 26.8889C103.41 27.1577 103.581 27.4125 103.717 27.6489L106.141 31.9309C69.2667 42.0985 42.2379 74.2325 41.7892 112.456C40.7165 112.104 39.6193 111.728 38.5027 111.344L37.0252 110.834C29.1306 108.141 20.5338 105.912 11.1861 107.798C3.55975 109.342 -1.31159 116.465 0.312189 123.717C1.93109 130.97 9.42583 135.604 17.062 134.056C19.856 133.5 25.0004 135.256 27.4776 136.1L28.8722 136.582C32.8804 137.963 37.5518 139.552 42.7304 140.373C43.4813 162.33 44.637 184.273 46.2412 206.184C46.7142 212.612 47.3091 219.336 50.6835 224.763C54.0529 230.189 61.1332 233.735 66.7164 230.866C69.0131 229.684 70.7588 227.613 72.9092 226.171C74.4404 225.147 76.1324 224.512 77.8927 224.132C77.0394 226.607 76.4396 229.318 76.1275 232.159C74.0941 250.455 83.2078 252.962 91.946 252.962C100.216 252.962 108.033 250.942 107.857 234.977C113.26 237.725 118.955 239.87 124.826 241.265C129.088 242.28 133.555 242.915 137.826 241.942C141.093 241.196 144.087 239.546 147.033 237.91C150.495 235.991 153.957 234.073 157.419 232.154C157.419 232.154 157.419 232.159 157.419 232.164C155.39 250.46 164.499 252.967 173.237 252.967C181.975 252.967 190.221 250.738 189.056 232.164C188.797 228.058 187.807 224.234 186.252 221.009C188.592 220.87 190.943 220.986 193.298 221.458C199.237 222.649 205.893 225.828 210.838 222.223C214.49 219.563 215.265 214.386 215.68 209.789C217.781 186.595 218.679 163.289 218.489 139.993C222.789 139.117 226.71 137.777 230.138 136.596L231.532 136.114C234.01 135.266 239.149 133.505 241.948 134.07C249.579 135.613 257.074 130.984 258.698 123.736C260.322 116.488 255.455 109.36 247.824 107.817L247.814 107.803Z" fill="#ECB19F"/>
<path d="M133.564 105.045C132.774 105.045 131.96 105.003 131.112 104.915C115.444 103.326 110.393 91.8465 110.183 91.3599L116.727 88.8481L113.455 90.104L116.717 88.825C116.868 89.1633 120.52 97.0925 131.863 98.2464C142.137 99.2659 144.984 90.5396 145.272 89.5386L152.099 91.2533C150.729 96.2305 145.15 105.045 133.564 105.045Z" fill="#040000"/>
<path d="M149.763 77.3088C152.235 77.3088 154.239 75.1115 154.239 72.4011C154.239 69.6907 152.235 67.4934 149.763 67.4934C147.291 67.4934 145.287 69.6907 145.287 72.4011C145.287 75.1115 147.291 77.3088 149.763 77.3088Z" fill="#040000"/>
<path d="M112.328 77.3088C114.801 77.3088 116.805 75.1115 116.805 72.4011C116.805 69.6907 114.801 67.4934 112.328 67.4934C109.856 67.4934 107.852 69.6907 107.852 72.4011C107.852 75.1115 109.856 77.3088 112.328 77.3088Z" fill="#040000"/>
<path d="M176.655 11.9935C171.487 7.1043 165.201 11.289 165.201 17.6751C165.201 24.0611 176.655 29.2422 176.655 29.2422C176.655 29.2422 188.11 24.0611 188.11 17.6751C188.11 11.289 181.819 7.1043 176.655 11.9935Z" fill="#ECB19F"/>
<path d="M215.597 20.7708C209.536 9.51881 196.145 13.407 192.352 24.4875C188.558 35.568 205.357 50.6942 205.357 50.6942C205.357 50.6942 228.299 47.8534 232.093 36.7683C235.887 25.6877 227.456 15.0568 215.597 20.7708Z" fill="#ECB19F"/>
<path d="M28.1066 65.3571C21.4262 62.5858 17.1643 68.652 19.6025 74.6071C22.0454 80.5621 34.6992 81.4333 34.6992 81.4333C34.6992 81.4333 43.3935 72.656 40.9554 66.701C38.5124 60.746 31.0567 59.022 28.1114 65.3571H28.1066Z" fill="#ECB19F"/>
</g>
<defs>
<clipPath id="clip0_576_150">
<rect width="259" height="301" fill="white"/>
</clipPath>
</defs>
</svg>
