<svg width="260" height="301" viewBox="0 0 260 301" fill="none" xmlns="http://www.w3.org/2000/svg">
<path opacity="0.3" d="M131.141 301.005C179.279 301.005 218.303 295.38 218.303 288.441C218.303 281.503 179.279 275.878 131.141 275.878C83.0024 275.878 43.9785 281.503 43.9785 288.441C43.9785 295.38 83.0024 301.005 131.141 301.005Z" fill="#898989"/>
<path d="M247.814 107.807C238.462 105.917 229.87 108.15 221.975 110.843L220.498 111.353C220.424 111.381 220.351 111.404 220.278 111.427C219.157 65.4874 179.65 28.5662 131.043 28.5662C126.216 28.5662 121.481 28.9416 116.859 29.6414L113.036 22.8846C112.811 22.4861 112.548 22.069 112.265 21.638C112.138 21.4387 111.977 21.1838 111.831 20.9521C111.875 20.9058 111.924 20.8548 111.968 20.8085C112.587 20.1365 113.172 19.4599 113.626 18.7555C114.811 16.9064 115.586 14.9693 115.922 13.009C116.873 7.57765 114.186 2.809 109.076 0.862605C104.058 -1.04208 97.1879 -0.0688818 93.9501 6.58592C92.7213 9.10696 93.8769 12.1007 96.5345 13.2639C99.1774 14.4317 102.337 13.3334 103.561 10.8077C103.839 10.2377 104.063 9.78819 105.141 10.2053C105.317 10.2702 105.643 10.3953 105.477 11.3638C105.36 12.0404 105.053 12.7866 104.595 13.5049C104.434 13.7366 104.215 13.9451 104.01 14.1722C103.103 15.1547 101.733 16.6423 101.186 18.7926C100.284 22.3007 102.132 25.1786 103.239 26.8933C103.41 27.162 103.581 27.4169 103.717 27.6533L106.141 31.9353C69.2667 42.1029 42.2379 74.2369 41.7892 112.46C40.7165 112.108 39.6193 111.733 38.5027 111.348L37.0252 110.838C29.1306 108.146 20.5338 105.917 11.1861 107.803C3.55975 109.346 -1.31159 116.469 0.312189 123.722C1.93109 130.974 9.42583 135.608 17.062 134.061C19.856 133.504 25.0005 135.261 27.4776 136.104L28.8722 136.586C32.8804 137.967 37.5518 139.557 42.7304 140.377C43.4813 162.334 44.637 184.277 46.2412 206.188C46.7142 212.616 47.3091 219.34 50.6835 224.767C54.0529 230.194 61.1332 233.739 66.7165 230.87C69.0131 229.689 70.7588 227.617 72.9092 226.176C74.4404 225.152 76.1324 224.517 77.8927 224.137C77.0394 226.611 76.4396 229.322 76.1275 232.163C74.0942 250.459 83.2078 252.966 91.946 252.966C100.216 252.966 108.033 250.946 107.857 234.981C113.26 237.729 118.955 239.875 124.826 241.27C129.088 242.285 133.555 242.919 137.826 241.946C141.093 241.2 144.087 239.55 147.033 237.914C150.495 235.996 153.957 234.077 157.419 232.159C157.419 232.159 157.419 232.163 157.419 232.168C155.39 250.464 164.499 252.971 173.237 252.971C181.975 252.971 190.221 250.742 189.056 232.168C188.797 228.062 187.807 224.239 186.252 221.013C188.592 220.874 190.943 220.99 193.298 221.463C199.237 222.654 205.893 225.833 210.838 222.227C214.49 219.567 215.265 214.391 215.68 209.794C217.781 186.599 218.679 163.293 218.489 139.997C222.789 139.121 226.71 137.782 230.138 136.6L231.532 136.118C234.01 135.27 239.149 133.509 241.948 134.074C249.579 135.618 257.074 130.988 258.698 123.74C260.322 116.492 255.455 109.365 247.824 107.821L247.814 107.807Z" fill="#94BC57"/>
<path d="M169.478 75.0013C163.573 72.5869 158.628 67.6282 158.423 67.4197L160.052 65.8579C160.101 65.9043 164.884 70.7007 170.346 72.9344L169.478 75.0013Z" fill="#040000"/>
<path d="M93.0285 80.6317L91 79.0607C95.964 74.7091 98.8556 68.249 98.8848 68.1841L101.503 68.9673C101.377 69.25 98.3972 75.9326 93.0285 80.6317Z" fill="#040000"/>
<path d="M103.083 79.1812L116.995 86.3689" stroke="#040000" stroke-width="2" stroke-miterlimit="10"/>
<path d="M117.741 79.1812L103.829 86.3689" stroke="#040000" stroke-width="2" stroke-miterlimit="10"/>
<path d="M146 79L159.912 86.1877" stroke="#040000" stroke-width="2" stroke-miterlimit="10"/>
<path d="M159.935 79.1812L146.018 86.3689" stroke="#040000" stroke-width="2" stroke-miterlimit="10"/>
<path d="M150.773 104.966C150.773 107.311 145.116 106.686 140.02 105.648C134.925 104.61 129.317 104.577 124.056 105.648C118.794 106.718 113.304 107.307 113.304 104.966C113.304 100.703 121.691 94.0342 132.038 94.0342C142.385 94.0342 150.773 100.703 150.773 104.966Z" stroke="#040000" stroke-width="2" stroke-miterlimit="10"/>
</svg>
