<svg width="325" height="473" viewBox="0 0 325 473" fill="none" xmlns="http://www.w3.org/2000/svg">
<g filter="url(#filter0_d_5_80)">
<path d="M17.6865 15.1289C14.3009 18.0881 12.124 22.6971 12.124 27.874C12.1243 36.803 18.5994 44.0418 26.5859 44.042C34.5724 44.0417 41.0466 36.8029 41.0469 27.874C41.0469 22.6968 38.8702 18.0881 35.4844 15.1289V3H68.8584V15.1289C65.4726 18.0881 63.2959 22.6969 63.2959 27.874C63.2961 36.8031 69.7711 44.042 77.7578 44.042C85.7442 44.0416 92.2185 36.8028 92.2188 27.874C92.2188 22.697 90.0419 18.0881 86.6562 15.1289V3H120.029V15.1289C116.644 18.0881 114.467 22.697 114.467 27.874C114.467 36.803 120.942 44.0419 128.929 44.042C136.915 44.0417 143.389 36.8029 143.39 27.874C143.39 22.6974 141.213 18.0891 137.828 15.1299V3H171.201V15.1289C167.815 18.0881 165.639 22.6969 165.639 27.874C165.639 36.8031 172.114 44.042 180.101 44.042C188.087 44.0416 194.561 36.8028 194.562 27.874C194.562 22.6975 192.385 18.0891 189 15.1299V3H222.372V15.1289C218.986 18.0881 216.81 22.697 216.81 27.874C216.81 36.803 223.285 44.0419 231.271 44.042C239.258 44.0417 245.732 36.8029 245.732 27.874C245.732 22.6969 243.556 18.0881 240.17 15.1289V3H273.544V15.1289C270.158 18.0881 267.981 22.6969 267.981 27.874C267.982 36.8031 274.457 44.042 282.443 44.042C290.43 44.0415 296.904 36.8028 296.904 27.874C296.904 22.697 294.727 18.0881 291.342 15.1289V3H315.815V465.65H1V3H17.6865V15.1289Z" fill="white"/>
</g>
<line x1="27" y1="82.5" x2="289" y2="82.5" stroke="#4A4A4A" stroke-opacity="0.2"/>
<line x1="27" y1="108.5" x2="289" y2="108.5" stroke="#4A4A4A" stroke-opacity="0.2"/>
<line x1="27" y1="134.5" x2="289" y2="134.5" stroke="#4A4A4A" stroke-opacity="0.2"/>
<line x1="27" y1="160.5" x2="289" y2="160.5" stroke="#4A4A4A" stroke-opacity="0.2"/>
<line x1="27" y1="186.5" x2="289" y2="186.5" stroke="#4A4A4A" stroke-opacity="0.2"/>
<line x1="27" y1="212.5" x2="289" y2="212.5" stroke="#4A4A4A" stroke-opacity="0.2"/>
<line x1="27" y1="238.5" x2="289" y2="238.5" stroke="#4A4A4A" stroke-opacity="0.2"/>
<line x1="27" y1="264.5" x2="289" y2="264.5" stroke="#4A4A4A" stroke-opacity="0.2"/>
<line x1="27" y1="290.5" x2="289" y2="290.5" stroke="#4A4A4A" stroke-opacity="0.2"/>
<line x1="27" y1="316.5" x2="289" y2="316.5" stroke="#4A4A4A" stroke-opacity="0.2"/>
<line x1="27" y1="342.5" x2="289" y2="342.5" stroke="#4A4A4A" stroke-opacity="0.2"/>
<line x1="27" y1="368.5" x2="289" y2="368.5" stroke="#4A4A4A" stroke-opacity="0.2"/>
<line x1="27" y1="394.5" x2="289" y2="394.5" stroke="#4A4A4A" stroke-opacity="0.2"/>
<line x1="27" y1="420.5" x2="289" y2="420.5" stroke="#4A4A4A" stroke-opacity="0.2"/>
<defs>
<filter id="filter0_d_5_80" x="0.5" y="0.5" width="323.815" height="471.65" filterUnits="userSpaceOnUse" color-interpolation-filters="sRGB">
<feFlood flood-opacity="0" result="BackgroundImageFix"/>
<feColorMatrix in="SourceAlpha" type="matrix" values="0 0 0 0 0 0 0 0 0 0 0 0 0 0 0 0 0 0 127 0" result="hardAlpha"/>
<feMorphology radius="1" operator="erode" in="SourceAlpha" result="effect1_dropShadow_5_80"/>
<feOffset dx="4" dy="2"/>
<feGaussianBlur stdDeviation="2.75"/>
<feComposite in2="hardAlpha" operator="out"/>
<feColorMatrix type="matrix" values="0 0 0 0 0 0 0 0 0 0 0 0 0 0 0 0 0 0 0.25 0"/>
<feBlend mode="normal" in2="BackgroundImageFix" result="effect1_dropShadow_5_80"/>
<feBlend mode="normal" in="SourceGraphic" in2="effect1_dropShadow_5_80" result="shape"/>
</filter>
</defs>
</svg>
