<svg width="325" height="472" viewBox="0 0 325 472" fill="none" xmlns="http://www.w3.org/2000/svg">
<g filter="url(#filter0_d_114_2304)">
<path d="M17.8711 14.8037C14.4854 17.7629 12.3086 22.3719 12.3086 27.5488C12.3088 36.4778 18.784 43.7166 26.7705 43.7168C34.757 43.7165 41.2312 36.4777 41.2314 27.5488C41.2314 22.3717 39.0548 17.7629 35.6689 14.8037V2.6748H69.043V14.8037C65.6571 17.7629 63.4805 22.3717 63.4805 27.5488C63.4807 36.4779 69.9557 43.7168 77.9424 43.7168C85.9288 43.7164 92.4031 36.4776 92.4033 27.5488C92.4033 22.3718 90.2265 17.7629 86.8408 14.8037V2.6748H120.214V14.8037C116.828 17.7629 114.651 22.3718 114.651 27.5488C114.652 36.4778 121.127 43.7167 129.113 43.7168C137.1 43.7165 143.574 36.4777 143.574 27.5488C143.574 22.3722 141.398 17.7639 138.013 14.8047V2.6748H171.386V14.8037C168 17.7629 165.823 22.3717 165.823 27.5488C165.823 36.4779 172.298 43.7168 180.285 43.7168C188.272 43.7164 194.746 36.4776 194.746 27.5488C194.746 22.3723 192.57 17.7639 189.185 14.8047V2.6748H222.557V14.8037C219.171 17.7629 216.994 22.3718 216.994 27.5488C216.994 36.4778 223.469 43.7167 231.456 43.7168C239.443 43.7165 245.917 36.4777 245.917 27.5488C245.917 22.3717 243.74 17.7629 240.354 14.8037V2.6748H273.729V14.8037C270.343 17.7629 268.166 22.3717 268.166 27.5488C268.166 36.4779 274.641 43.7168 282.628 43.7168C290.614 43.7163 297.089 36.4776 297.089 27.5488C297.089 22.3718 294.912 17.7629 291.526 14.8037V2.6748H316V465.325H1.18457V2.6748H17.8711V14.8037Z" fill="white"/>
</g>
<defs>
<filter id="filter0_d_114_2304" x="0.68457" y="0.174805" width="323.815" height="471.65" filterUnits="userSpaceOnUse" color-interpolation-filters="sRGB">
<feFlood flood-opacity="0" result="BackgroundImageFix"/>
<feColorMatrix in="SourceAlpha" type="matrix" values="0 0 0 0 0 0 0 0 0 0 0 0 0 0 0 0 0 0 127 0" result="hardAlpha"/>
<feMorphology radius="1" operator="erode" in="SourceAlpha" result="effect1_dropShadow_114_2304"/>
<feOffset dx="4" dy="2"/>
<feGaussianBlur stdDeviation="2.75"/>
<feComposite in2="hardAlpha" operator="out"/>
<feColorMatrix type="matrix" values="0 0 0 0 0 0 0 0 0 0 0 0 0 0 0 0 0 0 0.25 0"/>
<feBlend mode="normal" in2="BackgroundImageFix" result="effect1_dropShadow_114_2304"/>
<feBlend mode="normal" in="SourceGraphic" in2="effect1_dropShadow_114_2304" result="shape"/>
</filter>
</defs>
</svg>
