<?xml version="1.0" encoding="UTF-8"?>
<svg id="_레이어_1" data-name="레이어_1" xmlns="http://www.w3.org/2000/svg" version="1.1" viewBox="0 0 300 300">
  <!-- Generator: Adobe Illustrator 29.5.1, SVG Export Plug-In . SVG Version: 2.1.0 Build 141)  -->
  <defs>
    <style>
      .st0 {
        fill: #4a4a4a;
      }

      .st1 {
        fill: #fff;
      }
    </style>
  </defs>
  <path class="st1" d="M215.18,36.56v6.09c1.85,1.41,3.06,3.72,3.06,6.34,0,4.3-3.26,7.78-7.27,7.78s-7.27-3.48-7.27-7.78c0-2.63,1.22-4.96,3.09-6.36v-6.07h-16.76v6.09c1.85,1.41,3.06,3.72,3.06,6.34,0,4.3-3.26,7.78-7.27,7.78s-7.27-3.48-7.27-7.78c0-2.63,1.22-4.96,3.09-6.36v-6.07h-16.6v6.09c1.85,1.41,3.06,3.72,3.06,6.34,0,4.3-3.26,7.78-7.27,7.78s-7.27-3.48-7.27-7.78c0-2.63,1.22-4.96,3.09-6.36v-6.07h-16.93v6.09c1.85,1.41,3.06,3.72,3.06,6.34,0,4.3-3.26,7.78-7.27,7.78s-7.27-3.48-7.27-7.78c0-2.63,1.22-4.96,3.09-6.36v-6.07h-16.84v6.09c1.85,1.41,3.06,3.72,3.06,6.34,0,4.3-3.26,7.78-7.27,7.78s-7.27-3.48-7.27-7.78c0-2.63,1.22-4.96,3.09-6.36v-6.07h-16.52v6.09c1.85,1.41,3.06,3.72,3.06,6.34,0,4.3-3.26,7.78-7.27,7.78s-7.27-3.48-7.27-7.78c0-2.63,1.22-4.96,3.09-6.36v-6.07h-8.27v227.62h154.11V36.56h-11.84Z"/>
  <rect class="st0" x="84.67" y="75.92" width="128.91" height=".64"/>
  <rect class="st0" x="84.67" y="87.79" width="128.91" height=".64"/>
  <rect class="st0" x="84.67" y="100.88" width="128.91" height=".64"/>
  <rect class="st0" x="84.67" y="113.97" width="128.91" height=".64"/>
  <rect class="st0" x="84.67" y="127.06" width="128.91" height=".64"/>
  <rect class="st0" x="84.67" y="140.15" width="128.91" height=".64"/>
  <rect class="st0" x="84.67" y="153.24" width="128.91" height=".64"/>
  <rect class="st0" x="84.67" y="166.33" width="128.91" height=".64"/>
  <rect class="st0" x="84.67" y="179.42" width="128.91" height=".64"/>
  <rect class="st0" x="84.67" y="192.52" width="128.91" height=".64"/>
  <rect class="st0" x="84.67" y="205.61" width="128.91" height=".64"/>
  <rect class="st0" x="84.67" y="218.7" width="128.91" height=".64"/>
  <rect class="st0" x="84.67" y="231.79" width="128.91" height=".64"/>
  <rect class="st0" x="84.67" y="244.88" width="128.91" height=".64"/>
</svg>