<svg width="259" height="301" viewBox="0 0 259 301" fill="none" xmlns="http://www.w3.org/2000/svg">
<g clip-path="url(#clip0_576_163)">
<path d="M247.814 107.803C238.462 105.912 229.87 108.146 221.975 110.838L220.498 111.348C220.424 111.376 220.351 111.399 220.278 111.422C219.157 65.4825 179.65 28.5613 131.043 28.5613C126.216 28.5613 121.481 28.9367 116.859 29.6365L113.036 22.8797C112.811 22.4812 112.548 22.0641 112.265 21.6331C112.138 21.4338 111.977 21.179 111.831 20.9472C111.875 20.9009 111.924 20.8499 111.968 20.8036C112.587 20.1316 113.172 19.455 113.626 18.7506C114.811 16.9015 115.586 14.9644 115.922 13.0041C116.873 7.57277 114.186 2.80411 109.076 0.857722C104.058 -1.04696 97.1879 -0.0737646 93.9501 6.58104C92.7213 9.10207 93.8769 12.0958 96.5345 13.259C99.1774 14.4268 102.337 13.3285 103.561 10.8028C103.839 10.2328 104.063 9.78331 105.141 10.2004C105.317 10.2653 105.643 10.3904 105.477 11.359C105.36 12.0356 105.053 12.7817 104.595 13.5C104.434 13.7317 104.215 13.9402 104.01 14.1673C103.103 15.1498 101.733 16.6374 101.186 18.7877C100.284 22.2958 102.132 25.1737 103.239 26.8884C103.41 27.1572 103.581 27.412 103.717 27.6484L106.141 31.9304C69.2667 42.098 42.2379 74.232 41.7892 112.455C40.7165 112.103 39.6193 111.728 38.5027 111.343L37.0252 110.833C29.1306 108.141 20.5338 105.912 11.1861 107.798C3.55975 109.341 -1.31159 116.464 0.312189 123.717C1.93109 130.969 9.42583 135.604 17.062 134.056C19.856 133.5 25.0005 135.256 27.4776 136.099L28.8722 136.581C32.8804 137.962 37.5518 139.552 42.7304 140.372C43.4813 162.329 44.637 184.273 46.2412 206.183C46.7142 212.611 47.3091 219.335 50.6835 224.762C54.0529 230.189 61.1332 233.734 66.7165 230.865C69.0131 229.684 70.7588 227.612 72.9092 226.171C74.4404 225.147 76.1324 224.512 77.8927 224.132C77.0394 226.607 76.4396 229.318 76.1275 232.158C74.0942 250.454 83.2078 252.962 91.946 252.962C100.216 252.962 108.033 250.941 107.857 234.976C113.26 237.724 118.955 239.87 124.826 241.265C129.088 242.28 133.555 242.915 137.826 241.941C141.093 241.195 144.087 239.545 147.033 237.91C150.495 235.991 153.957 234.072 157.419 232.154C157.419 232.154 157.419 232.158 157.419 232.163C155.39 250.459 164.499 252.966 173.237 252.966C181.975 252.966 190.221 250.737 189.056 232.163C188.797 228.057 187.807 224.234 186.252 221.008C188.592 220.869 190.943 220.985 193.298 221.458C199.237 222.649 205.893 225.828 210.838 222.223C214.49 219.562 215.265 214.386 215.68 209.789C217.781 186.594 218.679 163.289 218.489 139.992C222.789 139.116 226.71 137.777 230.138 136.595L231.532 136.113C234.01 135.265 239.149 133.504 241.948 134.07C249.579 135.613 257.074 130.983 258.698 123.735C260.322 116.487 255.455 109.36 247.824 107.816L247.814 107.803Z" fill="#AD97C3"/>
<path d="M168.766 68.462C160.086 65.0373 152.826 58.0025 152.518 57.7059L154.913 55.4907C154.981 55.5602 162.012 62.3633 170.043 65.5285L168.766 68.462Z" fill="#040000"/>
<path d="M92.848 73.2956L90.4148 71.1221C96.3686 65.0976 99.8308 56.1488 99.8649 56.0608L103.005 57.1406C102.854 57.5299 99.2846 66.7845 92.848 73.2956Z" fill="#040000"/>
<path d="M110.027 84.0656L107.404 82.1007C109.164 79.9782 111.056 77.4293 112.095 75.7471C108.262 76.4376 102.264 77.4572 102.264 77.4572L101.679 74.3337C101.679 74.3337 110.524 72.8368 113.543 72.2482C115.02 71.9516 115.727 72.8275 115.903 73.1056C116.395 73.8656 117.317 75.2837 110.027 84.0702V84.0656Z" fill="#040000"/>
<path d="M155.917 80.5575C146.008 74.5144 146.389 72.8924 146.594 72.0166C146.667 71.7014 147.028 70.6634 148.529 70.4733C151.582 70.0933 160.457 68.7587 160.457 68.7587L160.974 71.8961C160.974 71.8961 154.951 72.7951 151.094 73.3327C152.655 74.6025 155.322 76.4237 157.716 77.8835L155.912 80.5575H155.917Z" fill="#040000"/>
<path d="M143.19 97.3844C143.175 97.2547 141.61 84.6309 132.911 84.6726C123.861 84.8441 120.252 94.4926 120.213 94.59L117.053 93.5565C117.229 93.0746 121.486 81.716 132.843 81.5028C132.93 81.5028 133.013 81.5028 133.096 81.5028C144.585 81.5028 146.438 96.4066 146.511 97.0415L143.19 97.3891V97.3844Z" fill="#040000"/>
<path d="M166.961 82.8467C166.986 82.666 175.88 86.378 176.65 86.8971C178.055 87.8424 179.464 89.2281 179.835 90.8733C180.751 94.9746 174.963 96.5502 171.73 95.8875C166.327 94.7799 166.571 87.9073 166.869 83.8663C166.893 83.528 166.913 83.185 166.961 82.8467Z" fill="#F9FBFB"/>
<path d="M98.5629 82.8467C98.5385 82.666 89.6443 86.378 88.8739 86.8971C87.4695 87.8424 86.0603 89.2281 85.6897 90.8733C84.773 94.9746 90.5611 96.5502 93.794 95.8875C99.1968 94.7799 98.953 87.9073 98.6556 83.8663C98.6312 83.528 98.6117 83.185 98.5629 82.8467Z" fill="#F9FBFB"/>
<path opacity="0.3" d="M131.141 295.127C179.279 295.127 218.303 289.502 218.303 282.564C218.303 275.625 179.279 270 131.141 270C83.0024 270 43.9785 275.625 43.9785 282.564C43.9785 289.502 83.0024 295.127 131.141 295.127Z" fill="#898989"/>
</g>
<defs>
<clipPath id="clip0_576_163">
<rect width="259" height="301" fill="white"/>
</clipPath>
</defs>
</svg>
