<svg width="260" height="301" viewBox="0 0 260 301" fill="none" xmlns="http://www.w3.org/2000/svg">
<path opacity="0.3" d="M131.141 301.005C179.279 301.005 218.303 295.38 218.303 288.441C218.303 281.503 179.279 275.878 131.141 275.878C83.0024 275.878 43.9785 281.503 43.9785 288.441C43.9785 295.38 83.0024 301.005 131.141 301.005Z" fill="#898989"/>
<path d="M247.814 107.807C238.462 105.917 229.87 108.15 221.975 110.843L220.498 111.353C220.424 111.381 220.351 111.404 220.278 111.427C219.157 65.4874 179.65 28.5662 131.043 28.5662C126.216 28.5662 121.481 28.9416 116.859 29.6414L113.036 22.8846C112.811 22.4861 112.548 22.069 112.265 21.638C112.138 21.4387 111.977 21.1838 111.831 20.9521C111.875 20.9058 111.924 20.8548 111.968 20.8085C112.587 20.1365 113.172 19.4599 113.626 18.7555C114.811 16.9064 115.586 14.9693 115.922 13.009C116.873 7.57765 114.186 2.809 109.076 0.862605C104.058 -1.04208 97.1879 -0.0688818 93.9501 6.58592C92.7213 9.10696 93.8769 12.1007 96.5345 13.2639C99.1774 14.4317 102.337 13.3334 103.561 10.8077C103.839 10.2377 104.063 9.78819 105.141 10.2053C105.317 10.2702 105.643 10.3953 105.477 11.3638C105.36 12.0404 105.053 12.7866 104.595 13.5049C104.434 13.7366 104.215 13.9451 104.01 14.1722C103.103 15.1547 101.733 16.6423 101.186 18.7926C100.284 22.3007 102.132 25.1786 103.239 26.8933C103.41 27.162 103.581 27.4169 103.717 27.6533L106.141 31.9353C69.2667 42.1029 42.2379 74.2369 41.7892 112.46C40.7165 112.108 39.6193 111.733 38.5027 111.348L37.0252 110.838C29.1306 108.146 20.5338 105.917 11.1861 107.803C3.55975 109.346 -1.31159 116.469 0.312189 123.722C1.93109 130.974 9.42583 135.608 17.062 134.061C19.856 133.504 25.0005 135.261 27.4776 136.104L28.8722 136.586C32.8804 137.967 37.5518 139.557 42.7304 140.377C43.4813 162.334 44.637 184.277 46.2412 206.188C46.7142 212.616 47.3091 219.34 50.6835 224.767C54.0529 230.194 61.1332 233.739 66.7165 230.87C69.0131 229.689 70.7588 227.617 72.9092 226.176C74.4404 225.152 76.1324 224.517 77.8927 224.137C77.0394 226.611 76.4396 229.322 76.1275 232.163C74.0942 250.459 83.2078 252.966 91.946 252.966C100.216 252.966 108.033 250.946 107.857 234.981C113.26 237.729 118.955 239.875 124.826 241.27C129.088 242.285 133.555 242.919 137.826 241.946C141.093 241.2 144.087 239.55 147.033 237.914C150.495 235.996 153.957 234.077 157.419 232.159C157.419 232.159 157.419 232.163 157.419 232.168C155.39 250.464 164.499 252.971 173.237 252.971C181.975 252.971 190.221 250.742 189.056 232.168C188.797 228.062 187.807 224.239 186.252 221.013C188.592 220.874 190.943 220.99 193.298 221.463C199.237 222.654 205.893 225.833 210.838 222.227C214.49 219.567 215.265 214.391 215.68 209.794C217.781 186.599 218.679 163.293 218.489 139.997C222.789 139.121 226.71 137.782 230.138 136.6L231.532 136.118C234.01 135.27 239.149 133.509 241.948 134.074C249.579 135.618 257.074 130.988 258.698 123.74C260.322 116.492 255.455 109.365 247.824 107.821L247.814 107.807Z" fill="#87AFD5"/>
<path d="M168.063 75.0013C162.158 72.5869 157.214 67.6282 157.009 67.4197L158.638 65.8579C158.686 65.9043 163.47 70.7007 168.931 72.9344L168.063 75.0013Z" fill="#040000"/>
<path d="M92.5505 80.6317L90.522 79.0607C95.486 74.7091 98.3775 68.249 98.4068 68.1841L101.025 68.9673C100.899 69.25 97.9192 75.9326 92.5505 80.6317Z" fill="#040000"/>
<path d="M107.516 92.9496L104.663 90.8086C106.574 88.5007 108.642 85.7248 109.768 83.8896C105.599 84.6404 99.0699 85.748 99.0699 85.748L98.4312 82.3464C98.4312 82.3464 108.057 80.7152 111.343 80.0756C112.953 79.7512 113.718 80.7105 113.913 81.0071C114.45 81.8367 115.449 83.3752 107.52 92.9403L107.516 92.9496Z" fill="#040000"/>
<path d="M157.463 89.1311C146.676 82.5551 147.091 80.7848 147.315 79.8348C147.393 79.4918 147.783 78.3611 149.422 78.1525C152.747 77.7354 162.402 76.2896 162.402 76.2896L162.968 79.705C162.968 79.705 156.414 80.6875 152.216 81.2668C153.913 82.6478 156.819 84.6312 159.423 86.2208L157.458 89.1311H157.463Z" fill="#040000"/>
<path d="M110.568 104.971L107.413 104.586C107.447 104.327 108.325 98.191 113.089 96.277C116.366 94.9609 120.423 96.0036 125.187 99.3542C125.314 99.3959 125.406 99.4005 125.445 99.3912C125.913 99.2151 126.572 97.76 126.967 96.8841C127.835 94.9562 128.82 92.7689 131.116 92.5093C133.769 92.171 134.978 94.9053 135.944 97.0695C136.344 97.9592 137.08 99.6183 137.543 99.8222C140.064 98.6683 143.439 94.2843 144.526 92.6901C145.311 91.8744 146.73 91.0264 148.232 91.6242C150.524 92.5418 151.421 96.2075 151.153 103.506L147.973 103.4C148.266 95.4938 147.003 94.4233 146.945 94.3816C146.749 94.9979 142.688 100.842 138.918 102.515C137.85 102.987 136.963 102.848 136.407 102.64C134.71 102.019 133.852 100.105 133.023 98.2512C132.623 97.3614 131.887 95.7023 131.424 95.4984C131.029 95.568 130.263 97.2595 129.897 98.0751C129.122 99.7944 128.322 101.574 126.611 102.209C125.714 102.547 124.758 102.482 123.753 102.061L123.456 101.894C119.643 99.1734 116.497 98.2095 114.342 99.0668C111.29 100.29 110.587 104.929 110.583 104.976L110.568 104.971Z" fill="#040000"/>
<path d="M190.309 41.8986C191.635 41.8986 192.976 41.8105 194.234 41.4166C194.619 41.2961 195.014 41.1432 195.419 41.1942C196.316 41.3054 196.745 42.3435 196.702 43.2008C196.658 44.0581 196.331 44.9201 196.506 45.7682C197.043 48.3587 201.29 48.3958 202.753 50.6434C203.621 51.9781 203.26 53.6881 202.958 55.2313C202.909 55.4862 202.86 55.7457 202.914 55.996C203.065 56.7421 203.972 57.0989 204.767 57.1824C205.562 57.2658 206.425 57.2241 207.078 57.6597C208.795 58.8183 207.2 61.6359 208.326 63.3274" stroke="#87AFD5" stroke-width="2" stroke-miterlimit="10"/>
<path d="M68.8959 44.656C67.5744 44.5772 66.2384 44.4104 65.0096 43.9423C64.6341 43.7987 64.2489 43.6226 63.8393 43.6504C62.9372 43.7106 62.4398 44.7163 62.43 45.5782C62.4203 46.4402 62.6836 47.3161 62.4544 48.1503C61.7474 50.7037 57.5099 50.4952 55.9008 52.6455C54.9451 53.9245 55.1986 55.6531 55.3985 57.2102C55.4327 57.4651 55.4619 57.7293 55.3985 57.9749C55.1986 58.7117 54.2721 59.013 53.4724 59.05C52.6727 59.0871 51.8145 58.9944 51.1367 59.393C49.3472 60.4496 50.7564 63.3553 49.5227 64.9773" stroke="#87AFD5" stroke-width="2" stroke-miterlimit="10"/>
<path d="M75.3911 39.7624L76.1664 37.6769C76.3322 37.2367 76.5468 36.7408 77.01 36.5786C77.3367 36.4628 77.6976 36.5462 78.0486 36.5555C80.5696 36.6203 81.462 33.0334 83.8611 32.2966C85.163 31.898 86.5869 32.4588 87.6987 33.2188" stroke="#87AFD5" stroke-width="2" stroke-miterlimit="10"/>
</svg>
