<svg width="29" height="30" viewBox="0 0 29 30" fill="none" xmlns="http://www.w3.org/2000/svg">
<path d="M16.8336 24.8312C18.631 26.1107 21.0121 26.7632 23.1667 26.0431C23.091 26.1602 22.9303 26.2716 22.8151 26.3585C22.0894 26.9028 21.2485 27.3681 20.4245 27.7404C19.591 28.1184 18.8615 28.366 17.9713 28.589C14.7114 29.4035 11.4493 29.0649 8.42935 27.6496C7.54493 27.2357 6.66974 26.7759 5.88736 26.1769C5.83261 26.1354 5.73229 26.0921 5.73208 26.0148C5.91522 26.045 6.08892 26.1148 6.27017 26.1564C8.23756 26.6024 10.0543 26.2132 11.7458 25.1681C11.8458 25.1077 12.1307 24.8641 12.2047 24.841C12.303 24.8126 13.0187 24.9373 13.195 24.9582C13.3196 24.9733 13.4351 25.0092 13.5749 25.0168C14.0341 25.0413 14.5394 25.0621 14.9987 25.047C15.6128 25.0262 16.2175 24.9107 16.8297 24.8351L16.8336 24.8312ZM5.14224 14.964C6.5029 14.1703 8.26046 14.0626 9.74966 14.5255C11.8342 15.1738 13.4068 16.8748 14.862 18.4113L15.4821 17.7287C15.6049 17.6134 15.7151 17.4849 15.8473 17.381C16.5426 16.6536 17.2853 15.932 18.1393 15.3878C18.334 15.265 18.6328 15.0697 18.8463 15.0187C18.8521 15.0147 18.8673 14.9978 18.8766 14.9884C18.8825 14.9831 18.8994 14.9922 18.9069 14.9884C18.9106 14.9859 18.9149 14.9656 18.9372 14.9582C18.9466 14.9546 18.9581 14.9619 18.9674 14.9582C19.0279 14.8772 19.1503 14.8318 19.2409 14.7921C22.31 13.456 25.8045 14.7939 26.6325 18.1085L26.6305 18.1105C26.7911 18.753 26.9613 19.9077 26.7516 20.5334C26.7478 20.5824 26.7572 20.6356 26.7516 20.6847C26.7478 20.7206 26.7251 20.751 26.7213 20.7755C26.7062 20.8663 26.6778 20.9592 26.6608 21.048C26.6608 21.0574 26.6627 21.0689 26.6608 21.0783C26.4718 22.0439 26.0904 22.8511 25.3893 23.5617C24.8792 24.0813 24.4934 24.3739 23.8454 24.7121C22.5319 25.3981 21.1498 25.5195 19.7116 25.1339C17.5931 24.5669 15.9623 22.9184 14.4674 21.4103L13.1969 22.7433C13.0175 22.8925 12.8432 23.0453 12.6657 23.1964C12.2008 23.5933 11.6338 24.081 11.0915 24.3644C10.9987 24.4117 10.7517 24.5407 10.6667 24.5294C10.6684 24.6009 10.623 24.6086 10.5758 24.6369C9.34738 25.3815 7.55173 25.5065 6.18911 25.1134C4.14994 24.5256 2.91608 22.9868 2.57779 20.925C2.35477 19.5755 2.4583 18.5168 3.06118 17.2902C3.3654 16.6742 3.54336 16.3681 4.03091 15.8673C4.23684 15.6557 4.43911 15.431 4.6979 15.2912L4.72818 15.2609H4.75845C4.76222 15.2477 4.75129 15.227 4.76431 15.2082C4.77754 15.1893 5.09114 14.9943 5.14224 14.964ZM7.75943 17.2619C7.49318 17.2827 7.15729 17.37 6.91177 17.4738C6.40149 17.6911 5.9285 18.1659 5.66958 18.6554C5.6544 18.6839 5.62035 18.7501 5.60904 18.7765C5.59966 18.7989 5.58451 18.8211 5.57876 18.8361C5.17622 19.868 5.35742 21.0594 6.12466 21.8664C6.23034 21.906 6.3291 22.062 6.39712 22.1076C7.36099 22.7653 8.4591 22.7635 9.55337 22.463C9.76114 22.4045 10.1162 22.2345 10.3034 22.2287C10.3223 22.1778 10.3703 22.1644 10.4137 22.1418C11.4246 21.6108 12.2562 21.1363 13.0915 20.3351H13.0895C13.1537 20.2747 13.2503 20.2086 13.2409 20.1085C13.2277 20.101 13.22 20.084 13.2106 20.0783C13.0311 19.9554 12.9077 19.7905 12.7565 19.6544C11.5433 18.5679 10.0315 17.3885 8.33462 17.2619H7.75943ZM20.9645 17.0168C20.8495 17.0187 20.7665 17.0376 20.6627 17.047C19.7556 17.1264 18.8729 17.4686 18.0885 17.9259C17.4233 18.3153 16.6385 19.0027 16.0885 19.547C16.064 19.5716 16.064 19.6213 16.0602 19.6232C16.1812 19.7951 16.3591 19.9141 16.5065 20.0558C17.6121 21.116 18.7707 22.0095 20.3317 22.3175C20.3771 22.327 20.4263 22.344 20.4528 22.3478C20.6057 22.3742 20.6756 22.3989 20.8454 22.4084H21.4508L21.5846 22.3859L21.6032 22.4084C21.7959 22.3857 22.0254 22.3383 22.2106 22.2873L22.2409 22.257C22.2503 22.2536 22.2637 22.2607 22.2711 22.257C22.2842 22.2513 22.2939 22.2398 22.3014 22.2267H22.3317C22.3595 22.1775 22.6019 22.0854 22.6735 22.0402L22.6715 22.0382C23.4067 21.5733 23.9097 20.7734 23.9645 19.8927C24.0248 18.9214 23.5046 17.8742 22.6618 17.3791C22.6109 17.3489 22.5562 17.3224 22.4997 17.296C22.4959 17.2942 22.4937 17.2921 22.4899 17.2921C22.3199 17.2166 22.1326 17.1586 21.9645 17.1076C21.9456 17.1038 21.9228 17.1113 21.904 17.1076C21.6527 17.0679 21.4731 17.0243 21.2067 17.0168C21.1273 17.0149 21.0439 17.0168 20.9645 17.0168ZM9.74283 0.810698C15.8717 -1.32473 22.4769 0.870735 26.234 6.07535C26.9937 7.12792 27.8797 8.67604 28.2086 9.93277C28.327 9.91962 28.24 9.97776 28.2389 9.99331C28.2389 10.0481 28.3108 10.2715 28.3297 10.3566C28.3354 10.383 28.3525 10.4115 28.36 10.4474C28.4413 10.4285 28.4192 10.4871 28.4362 10.5363C28.4795 10.6625 28.4717 10.7005 28.4811 10.8097V10.8703C28.5996 10.859 28.5122 10.9154 28.5114 10.9308V11.0519C28.5869 11.0236 28.6208 11.1992 28.6247 11.256C28.6266 11.2844 28.6022 11.2922 28.6022 11.2941V11.3244C28.7094 11.3697 28.6592 11.5012 28.6627 11.5656C28.6627 11.5957 28.6609 11.6263 28.6627 11.6564C28.6722 11.6621 28.712 11.6362 28.7233 11.6759C28.7875 11.8934 28.8386 12.3433 28.8708 12.5851C29.0559 14.0117 29.0465 15.4346 28.8141 16.8537L28.8102 16.8576C28.8008 16.9142 28.8439 16.979 28.7497 16.9621C28.7382 17.6066 28.3643 18.8726 28.1149 19.5832L27.8424 20.2638C27.8802 19.3908 27.8253 18.5931 27.5778 17.756C27.2149 16.5276 26.5171 15.4007 25.5211 14.6164L24.904 14.1437C24.8965 14.14 24.8813 14.1472 24.8737 14.1437C24.6941 14.0568 24.5045 13.9795 24.3268 13.8869C24.2479 13.8115 24.3264 13.7455 24.3268 13.7189C24.3419 13.373 24.34 12.9739 24.3268 12.6281V12.4162C24.3254 12.4113 24.302 12.3858 24.2965 12.3253V12.2658C24.2644 11.9199 24.2151 11.5757 24.1452 11.2355C24.1433 11.2261 24.147 11.2147 24.1452 11.2052C24.0847 10.9142 23.9928 10.6117 23.904 10.3263C23.8737 10.2262 23.8472 10.1219 23.8131 10.0236C23.7999 9.98209 23.7677 9.94401 23.7526 9.90249C23.5617 9.38477 23.3331 8.88199 23.0856 8.38882L22.3766 7.30972C21.8645 6.69745 21.3374 6.09821 20.7213 5.58609C19.338 4.43895 17.652 3.68277 15.8737 3.3898C15.8549 3.39356 15.832 3.38983 15.8131 3.3898C15.6638 3.39736 15.4402 3.33492 15.2985 3.32925H15.2379C14.7996 3.31415 14.3159 3.31603 13.8756 3.32925H13.7848C13.6356 3.33495 13.426 3.38975 13.2711 3.3898H13.2106C13.1539 3.42382 13.0913 3.42196 13.029 3.42007H12.9684C12.9023 3.45598 12.7715 3.47873 12.696 3.48062C12.6773 3.48065 12.655 3.48242 12.6364 3.48062C12.6213 3.51828 12.5795 3.51095 12.5456 3.51089C12.5268 3.51089 12.5039 3.51274 12.485 3.51089C12.4699 3.54862 12.4282 3.5412 12.3942 3.54117H12.3336C12.1448 3.59216 11.9142 3.68873 11.7272 3.72281C11.7008 3.72846 11.6666 3.72098 11.6364 3.72281C11.6081 3.7738 11.5606 3.77016 11.5153 3.78335C11.4983 3.78902 11.4699 3.7777 11.4547 3.78335C11.4434 3.78713 11.4207 3.80418 11.3942 3.81363C11.0276 3.94781 10.6587 4.10234 10.3034 4.26675C10.2185 4.30636 10.1112 4.34823 10.0319 4.38785C9.99227 4.4086 9.94854 4.42765 9.91079 4.44839C9.60651 4.60904 9.25471 4.83967 8.96743 5.03433C8.27576 5.50679 7.66128 6.07919 7.09243 6.6896C6.65212 7.29433 6.18565 7.87679 5.79068 8.50796C5.61116 8.79519 5.20499 9.82327 5.09341 10.175C4.87609 10.8553 4.84534 11.5432 4.69986 12.214C4.68285 12.2858 4.68099 12.2578 4.67154 12.3996C4.65454 12.6564 4.62049 12.9114 4.63931 13.172V13.6261C4.64309 13.7433 4.66769 13.8514 4.66958 13.9591V14.049C4.66581 14.0641 4.64877 14.0698 4.63931 14.0793C4.54871 14.1717 4.33778 14.2628 4.22427 14.3459C3.87653 14.5972 3.5094 14.9169 3.21646 15.2306C2.77421 15.705 2.3448 16.3383 2.06509 16.9582C1.62298 17.9388 1.4001 19.016 1.42837 20.0949L1.53677 21.1085C0.7865 19.5778 0.291086 17.9296 0.0982942 16.2306C0.0132642 15.4842 -0.0151801 14.7414 0.00747386 13.9894C0.02637 13.398 0.0984196 12.8703 0.189114 12.2921C0.294946 11.6099 0.415428 11.0728 0.611966 10.4132C0.757468 9.92382 0.901724 9.54792 1.09634 9.08121C1.41384 8.32149 1.69855 7.75394 2.12564 7.05093C2.62262 6.2346 3.09531 5.58643 3.73208 4.87027C4.40679 4.1124 5.02535 3.57343 5.8229 2.96109C6.20828 2.66449 6.49722 2.41105 6.94302 2.173C6.95812 2.16545 6.97729 2.13889 7.03384 2.11246C7.04135 2.1087 7.0565 2.11606 7.06411 2.11246C7.1038 2.03875 7.17394 2.01971 7.24576 1.99136C7.25519 1.98763 7.2666 1.99513 7.27603 1.99136C7.25923 1.91614 7.31549 1.92894 7.35513 1.9064C7.46664 1.84214 7.54863 1.79929 7.66958 1.75015C7.67899 1.74659 7.69049 1.7539 7.69986 1.75015C7.68664 1.66521 7.86343 1.62712 7.94107 1.59878C7.95043 1.59504 7.96194 1.60233 7.97134 1.59878C8.07718 1.51563 8.29693 1.37928 8.42544 1.3566C8.43483 1.35664 8.44637 1.35846 8.45572 1.3566C8.85443 1.13932 9.31013 0.961857 9.74283 0.810698ZM11.7985 11.4259C11.8268 11.494 12.53 13.1026 14.7165 13.3371L14.7184 13.3351C16.6972 13.543 17.2457 11.7736 17.3024 11.5695L18.6178 11.9171C18.3532 12.9264 17.2776 14.715 15.0456 14.715C14.8944 14.715 14.7354 14.7056 14.5729 14.6886C11.5546 14.3675 10.5804 12.0413 10.5397 11.9406L11.1715 11.6847L11.7985 11.4259ZM15.6051 13.171C15.5578 13.2482 15.4668 13.2231 15.3932 13.2306C15.448 13.1892 15.5372 13.1862 15.6051 13.171ZM15.696 13.2013L15.6657 13.171C15.6676 13.1704 15.6717 13.1445 15.696 13.1408V13.2013ZM15.817 13.1105C15.8057 13.1462 15.7772 13.1835 15.7565 13.1408C15.7735 13.1368 15.802 13.1105 15.817 13.1105ZM10.9518 7.10367C11.4288 7.10367 11.816 7.54883 11.8161 8.09781C11.8161 8.64684 11.4288 9.09195 10.9518 9.09195C10.4749 9.09185 10.0885 8.64678 10.0885 8.09781C10.0886 7.54889 10.4749 7.10376 10.9518 7.10367ZM18.1676 7.10367C18.6446 7.10367 19.0318 7.54883 19.0319 8.09781C19.0319 8.64684 18.6446 9.09195 18.1676 9.09195C17.6907 9.0919 17.3043 8.6468 17.3043 8.09781C17.3044 7.54887 17.6907 7.10372 18.1676 7.10367Z" fill="#B6B4AF"/>
</svg>
