<svg width="24" height="24" viewBox="0 0 24 24" fill="none" xmlns="http://www.w3.org/2000/svg">
<circle cx="12" cy="12" r="12" fill="#D9D9D9"/>
<path d="M11.0428 14.116C10.9635 13.5607 10.9918 13.0677 11.1278 12.637C11.2751 12.2064 11.4791 11.821 11.7398 11.481C12.0005 11.1297 12.2668 10.801 12.5388 10.495C12.8108 10.189 13.0431 9.88869 13.2358 9.59402C13.4285 9.29936 13.5248 8.98769 13.5248 8.65902C13.5248 8.37569 13.4625 8.13202 13.3378 7.92802C13.2245 7.71269 13.0601 7.54836 12.8448 7.43502C12.6408 7.32169 12.3858 7.26502 12.0798 7.26502C11.7058 7.26502 11.3658 7.35569 11.0598 7.53702C10.7538 7.70702 10.4648 7.93936 10.1928 8.23402L8.79879 6.95902C9.24079 6.44902 9.76212 6.03536 10.3628 5.71802C10.9748 5.40069 11.6491 5.24202 12.3858 5.24202C13.0658 5.24202 13.6721 5.36102 14.2048 5.59902C14.7488 5.83702 15.1738 6.19969 15.4798 6.68702C15.7858 7.16302 15.9388 7.76369 15.9388 8.48902C15.9388 8.97636 15.8368 9.40702 15.6328 9.78102C15.4401 10.155 15.1965 10.5064 14.9018 10.835C14.6185 11.1524 14.3351 11.4697 14.0518 11.787C13.7798 12.1044 13.5588 12.45 13.3888 12.824C13.2188 13.198 13.1621 13.6287 13.2188 14.116H11.0428ZM12.1478 18.638C11.6945 18.638 11.3205 18.4794 11.0258 18.162C10.7311 17.8447 10.5838 17.4594 10.5838 17.006C10.5838 16.53 10.7311 16.139 11.0258 15.833C11.3205 15.527 11.6945 15.374 12.1478 15.374C12.5898 15.374 12.9581 15.527 13.2528 15.833C13.5475 16.139 13.6948 16.53 13.6948 17.006C13.6948 17.4594 13.5475 17.8447 13.2528 18.162C12.9581 18.4794 12.5898 18.638 12.1478 18.638Z" fill="white"/>
</svg>
