<svg width="27" height="27" viewBox="0 0 27 27" fill="none" xmlns="http://www.w3.org/2000/svg">
<path d="M26.2675 0.295514C26.8002 0.664655 27.0797 1.30274 26.9795 1.94083L23.6045 23.8783C23.5254 24.3898 23.2142 24.8381 22.7607 25.0912C22.3072 25.3443 21.764 25.376 21.2841 25.1756L14.9771 22.5547L11.3648 26.4623C10.8955 26.9738 10.1572 27.1426 9.50856 26.8895C8.85992 26.6363 8.43805 26.0088 8.43805 25.3127V20.9041C8.43805 20.6932 8.51715 20.4928 8.65953 20.3346L17.4978 10.6947C17.8037 10.3625 17.7931 9.85098 17.4767 9.53458C17.1603 9.21817 16.6488 9.19708 16.3166 9.49766L5.59039 19.0268L0.933948 16.6959C0.374963 16.4164 0.0163696 15.8574 0.000549257 15.2352C-0.0152711 14.6129 0.311682 14.0328 0.849573 13.7217L24.4746 0.221686C25.0388 -0.0999937 25.7349 -0.0683531 26.2675 0.295514Z" fill="#6D6D6D"/>
</svg>
