<svg width="28" height="28" viewBox="0 0 28 28" fill="none" xmlns="http://www.w3.org/2000/svg">
<mask id="mask0_301_183" style="mask-type:luminance" maskUnits="userSpaceOnUse" x="1" y="1" width="26" height="26">
<path d="M21.4002 8.84967C22.1436 9.9155 22.6469 11.1299 22.8755 12.4092H25.6667V15.5907H22.8755C22.6469 16.8699 22.1436 18.0843 21.4002 19.1502L23.3748 21.1248L21.1249 23.3747L19.1503 21.4001C18.0845 22.1435 16.87 22.6468 15.5908 22.8753V25.6666H12.4093V22.8753C11.1301 22.6468 9.91562 22.1435 8.84979 21.4001L6.87521 23.3747L4.62529 21.1248L6.59987 19.1502C5.85646 18.0843 5.35314 16.8699 5.12462 15.5907H2.33337V12.4092H5.12462C5.35314 11.1299 5.85646 9.9155 6.59987 8.84967L4.62529 6.87509L6.87521 4.62517L8.84979 6.59975C9.91562 5.85634 11.1301 5.35301 12.4093 5.1245V2.33325H15.5908V5.1245C16.87 5.35301 18.0845 5.85634 19.1503 6.59975L21.1249 4.62517L23.3748 6.87509L21.4002 8.84967Z" fill="white" stroke="white" stroke-width="2" stroke-linejoin="round"/>
<path d="M14 16.9166C14.7736 16.9166 15.5155 16.6093 16.0624 16.0623C16.6094 15.5153 16.9167 14.7735 16.9167 13.9999C16.9167 13.2264 16.6094 12.4845 16.0624 11.9375C15.5155 11.3905 14.7736 11.0833 14 11.0833C13.2265 11.0833 12.4846 11.3905 11.9376 11.9375C11.3907 12.4845 11.0834 13.2264 11.0834 13.9999C11.0834 14.7735 11.3907 15.5153 11.9376 16.0623C12.4846 16.6093 13.2265 16.9166 14 16.9166Z" fill="black" stroke="black" stroke-width="2" stroke-linejoin="round"/>
</mask>
<g mask="url(#mask0_301_183)">
<path d="M0 0H28V28H0V0Z" fill="#6D6D6D"/>
</g>
</svg>
