<svg width="19" height="21" viewBox="0 0 19 21" fill="none" xmlns="http://www.w3.org/2000/svg">
<path d="M16.108 13.231C15.8097 12.7543 15.6513 12.2034 15.651 11.641V7.477C15.651 5.75919 14.9686 4.11174 13.7539 2.89707C12.5393 1.6824 10.8918 1 9.174 1C7.4562 1 5.80874 1.6824 4.59407 2.89707C3.3794 4.11174 2.697 5.75919 2.697 7.477V11.639C2.69708 12.202 2.53871 12.7537 2.24 13.231L1.152 14.971C1.05739 15.1224 1.00503 15.2963 1.00034 15.4748C0.995659 15.6532 1.03882 15.8296 1.12536 15.9858C1.21189 16.1419 1.33864 16.272 1.49244 16.3626C1.64625 16.4532 1.8215 16.501 2 16.501H16.348C16.5265 16.501 16.7018 16.4532 16.8556 16.3626C17.0094 16.272 17.1361 16.1419 17.2226 15.9858C17.3092 15.8296 17.3523 15.6532 17.3477 15.4748C17.343 15.2963 17.2906 15.1224 17.196 14.971L16.108 13.231Z" stroke="black" stroke-width="1.5" stroke-linecap="round" stroke-linejoin="round"/>
<path d="M7.17401 19.501H11.174" stroke="black" stroke-width="1.5" stroke-linecap="round"/>
</svg>
